<svg width="24" height="24" viewBox="0 0 24 24" fill="none" xmlns="http://www.w3.org/2000/svg">
<path d="M2.80536 12.7062L9.87642 19.7773C10.2653 20.1662 10.902 20.166 11.2911 19.7768C11.6803 19.3876 11.6806 18.751 11.2916 18.3621L5.92471 12.9951L20.4892 12.997C21.041 12.9968 21.4868 12.551 21.487 11.9993C21.4871 11.7163 21.374 11.4759 21.1901 11.292C21.0063 11.1082 20.7587 11.0021 20.4829 10.9952L5.92542 11.0004L11.2962 5.62959C11.6854 5.24041 11.6856 4.60378 11.2967 4.21487C10.9078 3.82596 10.2712 3.82619 9.88198 4.21538L2.80586 11.2915C2.41667 11.6807 2.41645 12.3173 2.80536 12.7062Z" fill="black"/>
</svg>
