<svg width="24" height="25" viewBox="0 0 24 25" fill="none" xmlns="http://www.w3.org/2000/svg">
<path d="M21.1921 11.7938L14.121 4.72273C13.7321 4.33382 13.0955 4.33405 12.7063 4.72323C12.3171 5.11242 12.3169 5.74904 12.7058 6.13795L18.0727 11.5049L3.5082 11.503C2.95646 11.5032 2.51066 11.949 2.51047 12.5008C2.51037 12.7837 2.62346 13.0242 2.8073 13.208C2.99115 13.3919 3.23869 13.4979 3.51456 13.5048L18.072 13.4996L12.7012 18.8704C12.3121 19.2596 12.3118 19.8962 12.7007 20.2851C13.0896 20.6741 13.7263 20.6738 14.1155 20.2846L21.1916 13.2085C21.5808 12.8193 21.581 12.1827 21.1921 11.7938Z" fill="black"/>
</svg>
