<svg width="24" height="24" viewBox="0 0 24 24" fill="none" xmlns="http://www.w3.org/2000/svg">
<path fill-rule="evenodd" clip-rule="evenodd" d="M4.08732 15.1029C4.6989 15.1529 5.32743 15.1275 5.96083 15.0184C9.88444 14.3421 12.5086 10.7087 11.8221 6.90301C11.6319 5.84874 11.2076 4.89182 10.6101 4.07363C10.4714 3.88363 10.3232 3.70112 10.1666 3.52659C10.0187 3.36197 9.86339 3.20444 9.70093 3.05448C9.38742 2.76504 9.49256 2.22944 9.91933 2.15589C10.4594 2.06281 10.9968 2.01235 11.5282 2.00201C16.5127 1.90494 20.9579 5.33777 21.8441 10.2507C22.8248 15.6874 19.076 20.878 13.4709 21.8441C9.047 22.6066 4.78902 20.5098 2.7086 16.9191C2.44683 16.4675 2.2196 15.9922 2.03079 15.496C1.88092 15.102 2.30513 14.744 2.72123 14.8595C3.16311 14.9823 3.62029 15.0646 4.08732 15.1029Z" fill="black"/>
</svg>
