<svg width="24" height="24" viewBox="0 0 24 24" fill="none" xmlns="http://www.w3.org/2000/svg">
<path d="M18.0001 5L8.00006 5C7.45006 5 7.00006 5.45032 7.00006 6.00071C7.00006 6.55111 7.45006 7.00143 8.00006 7.00143H15.5901L5.29006 17.2988C4.90006 17.6891 4.90006 18.3195 5.29006 18.7098C5.49006 18.9099 5.74006 19 6.00006 19C6.26006 19 6.51006 18.8999 6.71006 18.7098L17.0001 8.41244V16.0079C17.0001 16.5583 17.4501 17.0086 18.0001 17.0086C18.5501 17.0086 19.0001 16.5583 19.0001 16.0079V6.00071C19.0001 5.45032 18.5501 5 18.0001 5Z" fill="black"/>
</svg>
